# xmcd
#
# Track frame offsets: 
#        150
#        13946
#        23253
#        33490
#        47679
#        59379
#        73184
#        82374
#        93238
#        106103
#        120706
#        135035
#
# Disc length: 1978 seconds
#
# Revision: 1
# Processed by: cddbd v1.5.2PL0 Copyright (c) Steve Scherf et al.
# Submitted via: ExactAudioCopyFreeDBPlugin 1.0
#
DISCID=9507b80c
DTITLE=Ray Charles - Ray Charles:  Eighteen Classic Albums [Real Gone 
DTITLE=Jazz]
DYEAR=2017
DGENRE=Rhythm and Blues
TTITLE0=My Baby (I Love Her, Yes, I Do)
TTITLE1=Who You Gonna Love
TTITLE2=Sticks and Stones
TTITLE3=Worried Life Blues
TTITLE4=I Wonder
TTITLE5=Tell the Truth
TTITLE6=Hit the Road, Jack
TTITLE7=The Danger Zone
TTITLE8=Unchain My Heart
TTITLE9=But on the Other Hand
TTITLE10=Hide Nor Hair
TTITLE11=At the Club
EXTD=YEAR: 2017
EXTT0=
EXTT1=
EXTT2=
EXTT3=
EXTT4=
EXTT5=
EXTT6=
EXTT7=
EXTT8=
EXTT9=
EXTT10=
EXTT11=
PLAYORDER=
